# xmcd CD database file
#
# Track frame offsets:
#	150
#	36651
#	58177
#	80676
#	100495
#	112186
#	136062
#	154755
#	174138
#	196643
#	220857
#	236492
#	263133
#
# Disc length: 3810 seconds
#
# Revision: 1
# Processed by: cddbd v1.5.2PL0 Copyright (c) Steve Scherf et al.
# Submitted via: CDex 1.51
#
DISCID=b40ee00d
DTITLE=Various Artist - Jazz@Israel
DYEAR=2013
DGENRE=Jazz
TTITLE0=Omer Klein Trio - Fear Of Heights
TTITLE1=Layerz - Analog Mummies
TTITLE2=Daniel Zamir - Thirteen Attributes Of Mercy
TTITLE3=Karen Malka - Lady Of The Forest 
TTITLE4=Yotam - McDavid
TTITLE5=Malox - Bag Pipe Reggae
TTITLE6=Eyal Vilner - Wood'n You
TTITLE7=Ilana Eliya - Az Kavukem
TTITLE8=Ensemble Yaman - Dauda Chia
TTITLE9=Avishai Cohen - Seven Seas
TTITLE10=Noam Vazana - If You Love Me
TTITLE11=Ari Erev - Open Possibilities
TTITLE12=Jonathan Greenstein - Views Of Tel Aviv
EXTD=YEAR: 2013
EXTT0=
EXTT1=
EXTT2=
EXTT3=
EXTT4=
EXTT5=
EXTT6=
EXTT7=
EXTT8=
EXTT9=
EXTT10=
EXTT11=
EXTT12=
PLAYORDER=
